# xmcd CD database file
#
# Track frame offsets:
#	150
#	10963
#	24253
#	35906
#	48677
#	65170
#	78462
#	91509
#	104254
#	115477
#
# Disc length: 1743 seconds
#
# Revision: 0
# Processed by: cddbd v1.5.2PL0 Copyright (c) Steve Scherf et al.
# Submitted via: CDex 1.70beta2
#
DISCID=8006cd0a
DTITLE=Charley Pride - The Best Of Charley Pride
DYEAR=2002
DGENRE=Country
TTITLE0=Is Anybody Goin' to San Antone
TTITLE1=All I Have To Offer You (Is Me)
TTITLE2=She's Just An Old Love Turned Memory
TTITLE3=I Don't Think She's In Love Anymore
TTITLE4=Roll On Mississippi
TTITLE5=Amazing Love
TTITLE6=(I'm So) Afraid Of Losing You Again
TTITLE7=She's Too Good To Be True
TTITLE8=Missin' You
TTITLE9=Burgers And Fries
EXTD=YEAR: 2002
EXTT0=
EXTT1=
EXTT2=
EXTT3=
EXTT4=
EXTT5=
EXTT6=
EXTT7=
EXTT8=
EXTT9=
PLAYORDER=
